# xmcd CD database file
#
# Track frame offsets:
#	150
#	20050
#	37287
#	50497
#	64892
#	79670
#	90840
#	105795
#	115487
#	130002
#	143435
#	157670
#	173400
#	187970
#	205300
#	217330
#	234825
#	252545
#	266637
#	282640
#	299147
#	312327
#
# Disc length: 4326 seconds
#
# Revision: 2
# Processed by: cddbd v1.4b41PL1 Copyright (c) Steve Scherf et al.
# Submitted via: Feurio! 1.50.2ß - http://www.feurio.com
#
DISCID=4110e416
DTITLE=Various Artist - Sentimental Sounds
DYEAR=1900
DGENRE=
TTITLE0=??? - Come Closer
TTITLE1=??? - Toselli-serenade
TTITLE2=??? - Guitarren-Träume
TTITLE3=??? - Anette
TTITLE4=??? - Plaisir D`amour
TTITLE5=??? - Zwei Verliebte In Berlin
TTITLE6=??? - Petite Fleur
TTITLE7=??? - Träumerei
TTITLE8=??? - Schöne Musik
TTITLE9=??? - Georgette
TTITLE10=??? - My Green Valley
TTITLE11=??? - Jahre Des Lebens
TTITLE12=??? - Die Moldau
TTITLE13=??? - The 1960 Dream
TTITLE14=??? - Du Und Ich Im Sommerwind
TTITLE15=??? - Liebe Auf Zeit
TTITLE16=??? - My Last Romance
TTITLE17=??? - Rot Wie Ein Rubin
TTITLE18=??? - Dämmerung
TTITLE19=??? - Heimliche Sehnsucht
TTITLE20=??? - Tears Of Angels
TTITLE21=??? - Schlafe, Mein Prinzchen, Schlaf Ein
EXTD=
EXTT0=
EXTT1=
EXTT2=
EXTT3=
EXTT4=
EXTT5=
EXTT6=
EXTT7=
EXTT8=
EXTT9=
EXTT10=
EXTT11=
EXTT12=
EXTT13=
EXTT14=
EXTT15=
EXTT16=
EXTT17=
EXTT18=
EXTT19=
EXTT20=
EXTT21=
PLAYORDER=
